<mxfile host="Electron" modified="2023-11-17T07:59:21.474Z" agent="Mozilla/5.0 (Windows NT 10.0; Win64; x64) AppleWebKit/537.36 (KHTML, like Gecko) draw.io/22.0.3 Chrome/114.0.5735.289 Electron/25.8.4 Safari/537.36" etag="8XMBh0tv4kkcrZdxn4KD" version="22.0.3" type="device">
  <diagram name="Page-1" id="a-EH7FZSZuW2d_YCDxLV">
    <mxGraphModel dx="1032" dy="503" grid="1" gridSize="10" guides="1" tooltips="1" connect="1" arrows="1" fold="1" page="1" pageScale="1" pageWidth="1600" pageHeight="900" math="0" shadow="0">
      <root>
        <mxCell id="0" />
        <mxCell id="1" parent="0" />
        <mxCell id="xE5tLcY0Nk32OHiJMkW6-18" style="edgeStyle=orthogonalEdgeStyle;rounded=0;orthogonalLoop=1;jettySize=auto;html=1;entryX=0.012;entryY=0.468;entryDx=0;entryDy=0;exitX=1.001;exitY=0.276;exitDx=0;exitDy=0;entryPerimeter=0;exitPerimeter=0;" edge="1" parent="1" source="xE5tLcY0Nk32OHiJMkW6-1" target="xE5tLcY0Nk32OHiJMkW6-3">
          <mxGeometry relative="1" as="geometry" />
        </mxCell>
        <mxCell id="xE5tLcY0Nk32OHiJMkW6-19" value="MOSI" style="edgeLabel;html=1;align=center;verticalAlign=middle;resizable=0;points=[];" vertex="1" connectable="0" parent="xE5tLcY0Nk32OHiJMkW6-18">
          <mxGeometry x="0.4667" y="-1" relative="1" as="geometry">
            <mxPoint x="-50" y="-11" as="offset" />
          </mxGeometry>
        </mxCell>
        <mxCell id="xE5tLcY0Nk32OHiJMkW6-20" style="edgeStyle=orthogonalEdgeStyle;rounded=0;orthogonalLoop=1;jettySize=auto;html=1;entryX=1.003;entryY=0.172;entryDx=0;entryDy=0;exitX=-0.001;exitY=0.293;exitDx=0;exitDy=0;exitPerimeter=0;entryPerimeter=0;" edge="1" parent="1" source="xE5tLcY0Nk32OHiJMkW6-3" target="xE5tLcY0Nk32OHiJMkW6-1">
          <mxGeometry relative="1" as="geometry" />
        </mxCell>
        <mxCell id="xE5tLcY0Nk32OHiJMkW6-21" value="MISO" style="edgeLabel;html=1;align=center;verticalAlign=middle;resizable=0;points=[];" vertex="1" connectable="0" parent="xE5tLcY0Nk32OHiJMkW6-20">
          <mxGeometry x="0.3253" y="2" relative="1" as="geometry">
            <mxPoint x="25" y="-12" as="offset" />
          </mxGeometry>
        </mxCell>
        <mxCell id="xE5tLcY0Nk32OHiJMkW6-1" value="ESP32" style="rounded=0;whiteSpace=wrap;html=1;" vertex="1" parent="1">
          <mxGeometry x="110" y="120" width="200" height="290" as="geometry" />
        </mxCell>
        <mxCell id="xE5tLcY0Nk32OHiJMkW6-8" style="edgeStyle=orthogonalEdgeStyle;rounded=0;orthogonalLoop=1;jettySize=auto;html=1;entryX=0.006;entryY=0.174;entryDx=0;entryDy=0;exitX=0.986;exitY=0.12;exitDx=0;exitDy=0;exitPerimeter=0;entryPerimeter=0;" edge="1" parent="1" source="xE5tLcY0Nk32OHiJMkW6-3" target="xE5tLcY0Nk32OHiJMkW6-4">
          <mxGeometry relative="1" as="geometry" />
        </mxCell>
        <mxCell id="xE5tLcY0Nk32OHiJMkW6-9" value="CANH" style="edgeLabel;html=1;align=center;verticalAlign=middle;resizable=0;points=[];" vertex="1" connectable="0" parent="xE5tLcY0Nk32OHiJMkW6-8">
          <mxGeometry x="-0.0635" y="-2" relative="1" as="geometry">
            <mxPoint y="-12" as="offset" />
          </mxGeometry>
        </mxCell>
        <mxCell id="xE5tLcY0Nk32OHiJMkW6-10" style="edgeStyle=orthogonalEdgeStyle;rounded=0;orthogonalLoop=1;jettySize=auto;html=1;entryX=-0.012;entryY=0.415;entryDx=0;entryDy=0;exitX=1.003;exitY=0.293;exitDx=0;exitDy=0;exitPerimeter=0;entryPerimeter=0;" edge="1" parent="1" source="xE5tLcY0Nk32OHiJMkW6-3" target="xE5tLcY0Nk32OHiJMkW6-4">
          <mxGeometry relative="1" as="geometry" />
        </mxCell>
        <mxCell id="xE5tLcY0Nk32OHiJMkW6-11" value="CANL" style="edgeLabel;html=1;align=center;verticalAlign=middle;resizable=0;points=[];" vertex="1" connectable="0" parent="xE5tLcY0Nk32OHiJMkW6-10">
          <mxGeometry x="-0.0705" y="3" relative="1" as="geometry">
            <mxPoint y="-7" as="offset" />
          </mxGeometry>
        </mxCell>
        <mxCell id="xE5tLcY0Nk32OHiJMkW6-3" value="MCP2517" style="rounded=0;whiteSpace=wrap;html=1;" vertex="1" parent="1">
          <mxGeometry x="500" y="120" width="100" height="170" as="geometry" />
        </mxCell>
        <mxCell id="xE5tLcY0Nk32OHiJMkW6-4" value="Moteus motor driver" style="rounded=0;whiteSpace=wrap;html=1;" vertex="1" parent="1">
          <mxGeometry x="720" y="120" width="120" height="120" as="geometry" />
        </mxCell>
        <mxCell id="xE5tLcY0Nk32OHiJMkW6-5" value="" style="verticalLabelPosition=bottom;shadow=0;dashed=0;align=center;html=1;verticalAlign=top;shape=mxgraph.electrical.opto_electronics.led_1;pointerEvents=1;" vertex="1" parent="1">
          <mxGeometry x="360" y="470" width="60" height="30" as="geometry" />
        </mxCell>
        <mxCell id="xE5tLcY0Nk32OHiJMkW6-6" value="" style="html=1;shape=mxgraph.electrical.electro-mechanical.pushbutton;aspect=fixed;elSwitchState=off;" vertex="1" parent="1">
          <mxGeometry x="620" y="400" width="75" height="20" as="geometry" />
        </mxCell>
        <mxCell id="xE5tLcY0Nk32OHiJMkW6-12" style="edgeStyle=orthogonalEdgeStyle;rounded=0;orthogonalLoop=1;jettySize=auto;html=1;entryX=-0.001;entryY=0.663;entryDx=0;entryDy=0;entryPerimeter=0;" edge="1" parent="1" target="xE5tLcY0Nk32OHiJMkW6-4">
          <mxGeometry relative="1" as="geometry">
            <mxPoint x="600" y="200" as="sourcePoint" />
            <mxPoint x="720" y="210" as="targetPoint" />
          </mxGeometry>
        </mxCell>
        <mxCell id="xE5tLcY0Nk32OHiJMkW6-13" value="GND" style="edgeLabel;html=1;align=center;verticalAlign=middle;resizable=0;points=[];" vertex="1" connectable="0" parent="xE5tLcY0Nk32OHiJMkW6-12">
          <mxGeometry x="-0.0705" y="3" relative="1" as="geometry">
            <mxPoint y="-7" as="offset" />
          </mxGeometry>
        </mxCell>
        <mxCell id="xE5tLcY0Nk32OHiJMkW6-14" style="edgeStyle=orthogonalEdgeStyle;rounded=0;orthogonalLoop=1;jettySize=auto;html=1;exitX=-0.014;exitY=0.816;exitDx=0;exitDy=0;exitPerimeter=0;entryX=1.003;entryY=0.478;entryDx=0;entryDy=0;entryPerimeter=0;" edge="1" parent="1" source="xE5tLcY0Nk32OHiJMkW6-3" target="xE5tLcY0Nk32OHiJMkW6-1">
          <mxGeometry relative="1" as="geometry">
            <mxPoint x="490" y="260" as="sourcePoint" />
          </mxGeometry>
        </mxCell>
        <mxCell id="xE5tLcY0Nk32OHiJMkW6-15" value="INT" style="edgeLabel;html=1;align=center;verticalAlign=middle;resizable=0;points=[];" vertex="1" connectable="0" parent="xE5tLcY0Nk32OHiJMkW6-14">
          <mxGeometry x="0.2183" y="2" relative="1" as="geometry">
            <mxPoint x="16" y="-11" as="offset" />
          </mxGeometry>
        </mxCell>
        <mxCell id="xE5tLcY0Nk32OHiJMkW6-16" style="edgeStyle=orthogonalEdgeStyle;rounded=0;orthogonalLoop=1;jettySize=auto;html=1;entryX=-0.001;entryY=0.646;entryDx=0;entryDy=0;exitX=0.998;exitY=0.377;exitDx=0;exitDy=0;exitPerimeter=0;entryPerimeter=0;" edge="1" parent="1" source="xE5tLcY0Nk32OHiJMkW6-1" target="xE5tLcY0Nk32OHiJMkW6-3">
          <mxGeometry relative="1" as="geometry" />
        </mxCell>
        <mxCell id="xE5tLcY0Nk32OHiJMkW6-17" value="CS" style="edgeLabel;html=1;align=center;verticalAlign=middle;resizable=0;points=[];" vertex="1" connectable="0" parent="xE5tLcY0Nk32OHiJMkW6-16">
          <mxGeometry x="0.3386" y="-1" relative="1" as="geometry">
            <mxPoint x="-37" y="-10" as="offset" />
          </mxGeometry>
        </mxCell>
        <mxCell id="xE5tLcY0Nk32OHiJMkW6-22" style="edgeStyle=orthogonalEdgeStyle;rounded=0;orthogonalLoop=1;jettySize=auto;html=1;entryX=-0.006;entryY=0.118;entryDx=0;entryDy=0;entryPerimeter=0;exitX=1.004;exitY=0.072;exitDx=0;exitDy=0;exitPerimeter=0;" edge="1" parent="1" source="xE5tLcY0Nk32OHiJMkW6-1" target="xE5tLcY0Nk32OHiJMkW6-3">
          <mxGeometry relative="1" as="geometry" />
        </mxCell>
        <mxCell id="xE5tLcY0Nk32OHiJMkW6-23" value="SCLK" style="edgeLabel;html=1;align=center;verticalAlign=middle;resizable=0;points=[];" vertex="1" connectable="0" parent="xE5tLcY0Nk32OHiJMkW6-22">
          <mxGeometry x="0.3136" y="-1" relative="1" as="geometry">
            <mxPoint x="-34" y="-10" as="offset" />
          </mxGeometry>
        </mxCell>
        <mxCell id="xE5tLcY0Nk32OHiJMkW6-27" value="&lt;font style=&quot;font-size: 14px;&quot;&gt;3.3V&lt;/font&gt;" style="verticalLabelPosition=top;verticalAlign=bottom;shape=mxgraph.electrical.signal_sources.vdd;shadow=0;dashed=0;align=center;strokeWidth=1;fontSize=24;html=1;flipV=1;" vertex="1" parent="1">
          <mxGeometry x="195" y="90" width="30" height="30" as="geometry" />
        </mxCell>
        <mxCell id="xE5tLcY0Nk32OHiJMkW6-34" value="&lt;font style=&quot;font-size: 14px;&quot;&gt;3.3V&lt;/font&gt;" style="verticalLabelPosition=top;verticalAlign=bottom;shape=mxgraph.electrical.signal_sources.vdd;shadow=0;dashed=0;align=center;strokeWidth=1;fontSize=24;html=1;flipV=1;" vertex="1" parent="1">
          <mxGeometry x="535" y="90" width="30" height="30" as="geometry" />
        </mxCell>
        <mxCell id="xE5tLcY0Nk32OHiJMkW6-52" value="" style="pointerEvents=1;verticalLabelPosition=bottom;shadow=0;dashed=0;align=center;html=1;verticalAlign=top;shape=mxgraph.electrical.signal_sources.signal_ground;" vertex="1" parent="1">
          <mxGeometry x="533.75" y="290" width="32.5" height="20" as="geometry" />
        </mxCell>
        <mxCell id="xE5tLcY0Nk32OHiJMkW6-53" value="" style="pointerEvents=1;verticalLabelPosition=bottom;shadow=0;dashed=0;align=center;html=1;verticalAlign=top;shape=mxgraph.electrical.signal_sources.signal_ground;" vertex="1" parent="1">
          <mxGeometry x="193.75" y="410" width="32.5" height="20" as="geometry" />
        </mxCell>
      </root>
    </mxGraphModel>
  </diagram>
</mxfile>
